<svg xmlns="http://www.w3.org/2000/svg" xmlns:xlink="http://www.w3.org/1999/xlink" contentStyleType="text/css" height="679px" preserveAspectRatio="none" style="width:1863px;height:679px;background:#FFFFFF;" version="1.1" viewBox="0 0 1863 679" width="1863px" zoomAndPan="magnify"><defs/><g><!--class User--><g id="elem_User"><rect codeLine="1" fill="#F1F1F1" height="129.4844" id="User" rx="2.5" ry="2.5" style="stroke:#181818;stroke-width:0.5;" width="158.002" x="1029.83" y="7"/><ellipse cx="1088.6259" cy="23" fill="#ADD1B2" rx="11" ry="11" style="stroke:#181818;stroke-width:1.0;"/><path d="M1091.5946,28.6406 Q1091.0165,28.9375 1090.3759,29.0781 Q1089.7353,29.2344 1089.0321,29.2344 Q1086.5321,29.2344 1085.204,27.5938 Q1083.8915,25.9375 1083.8915,22.8125 Q1083.8915,19.6875 1085.204,18.0313 Q1086.5321,16.375 1089.0321,16.375 Q1089.7353,16.375 1090.3759,16.5313 Q1091.0321,16.6875 1091.5946,16.9844 L1091.5946,19.7031 Q1090.9696,19.125 1090.3759,18.8594 Q1089.7821,18.5781 1089.1571,18.5781 Q1087.8134,18.5781 1087.1259,19.6563 Q1086.4384,20.7188 1086.4384,22.8125 Q1086.4384,24.9063 1087.1259,25.9844 Q1087.8134,27.0469 1089.1571,27.0469 Q1089.7821,27.0469 1090.3759,26.7813 Q1090.9696,26.5 1091.5946,25.9219 L1091.5946,28.6406 Z " fill="#000000"/><text fill="#000000" font-family="sans-serif" font-size="14" lengthAdjust="spacing" textLength="31.9102" x="1109.1259" y="27.8467">User</text><line style="stroke:#181818;stroke-width:0.5;" x1="1030.83" x2="1186.832" y1="39" y2="39"/><text fill="#000000" font-family="sans-serif" font-size="14" lengthAdjust="spacing" textLength="146.002" x="1035.83" y="55.9951">&#160; &#160; +String username</text><text fill="#000000" font-family="sans-serif" font-size="14" lengthAdjust="spacing" textLength="142.4746" x="1035.83" y="72.292">&#160; &#160; +String password</text><text fill="#000000" font-family="sans-serif" font-size="14" lengthAdjust="spacing" textLength="122.5957" x="1035.83" y="88.5889">&#160; &#160; +Profile profile</text><line style="stroke:#181818;stroke-width:0.5;" x1="1030.83" x2="1186.832" y1="95.8906" y2="95.8906"/><text fill="#000000" font-family="sans-serif" font-size="14" lengthAdjust="spacing" textLength="108.6367" x="1035.83" y="112.8857">&#160; &#160; +void login()</text><text fill="#000000" font-family="sans-serif" font-size="14" lengthAdjust="spacing" textLength="118.8018" x="1035.83" y="129.1826">&#160; &#160; +void logout()</text></g><!--class Viewer--><g id="elem_Viewer"><rect codeLine="9" fill="#F1F1F1" height="129.4844" id="Viewer" rx="2.5" ry="2.5" style="stroke:#181818;stroke-width:0.5;" width="215.6699" x="7" y="402.26"/><ellipse cx="86.6353" cy="418.26" fill="#ADD1B2" rx="11" ry="11" style="stroke:#181818;stroke-width:1.0;"/><path d="M89.604,423.9006 Q89.0259,424.1975 88.3853,424.3381 Q87.7446,424.4944 87.0415,424.4944 Q84.5415,424.4944 83.2134,422.8538 Q81.9009,421.1975 81.9009,418.0725 Q81.9009,414.9475 83.2134,413.2913 Q84.5415,411.635 87.0415,411.635 Q87.7446,411.635 88.3853,411.7913 Q89.0415,411.9475 89.604,412.2444 L89.604,414.9631 Q88.979,414.385 88.3853,414.1194 Q87.7915,413.8381 87.1665,413.8381 Q85.8228,413.8381 85.1353,414.9163 Q84.4478,415.9788 84.4478,418.0725 Q84.4478,420.1663 85.1353,421.2444 Q85.8228,422.3069 87.1665,422.3069 Q87.7915,422.3069 88.3853,422.0413 Q88.979,421.76 89.604,421.1819 L89.604,423.9006 Z " fill="#000000"/><text fill="#000000" font-family="sans-serif" font-size="14" lengthAdjust="spacing" textLength="47.8994" x="107.1353" y="423.1067">Viewer</text><line style="stroke:#181818;stroke-width:0.5;" x1="8" x2="221.6699" y1="434.26" y2="434.26"/><line style="stroke:#181818;stroke-width:0.5;" x1="8" x2="221.6699" y1="442.26" y2="442.26"/><text fill="#000000" font-family="sans-serif" font-size="14" lengthAdjust="spacing" textLength="161.4717" x="13" y="459.2551">&#160; &#160; +void viewArtwork()</text><text fill="#000000" font-family="sans-serif" font-size="14" lengthAdjust="spacing" textLength="162.0049" x="13" y="475.552">&#160; &#160; +void saveArtwork()</text><text fill="#000000" font-family="sans-serif" font-size="14" lengthAdjust="spacing" textLength="199.7393" x="13" y="491.8489">&#160; &#160; +void viewCompetitions()</text><text fill="#000000" font-family="sans-serif" font-size="14" lengthAdjust="spacing" textLength="179.8604" x="13" y="508.1457">&#160; &#160; +void enrollInClasses()</text><text fill="#000000" font-family="sans-serif" font-size="14" lengthAdjust="spacing" textLength="203.6699" x="13" y="524.4426">&#160; &#160; +void practiceWithNotes()</text></g><!--class Artist--><g id="elem_Artist"><rect codeLine="17" fill="#F1F1F1" height="145.7813" id="Artist" rx="2.5" ry="2.5" style="stroke:#181818;stroke-width:0.5;" width="187.4512" x="284.11" y="196.48"/><ellipse cx="354.838" cy="212.48" fill="#ADD1B2" rx="11" ry="11" style="stroke:#181818;stroke-width:1.0;"/><path d="M357.8068,218.1206 Q357.2287,218.4175 356.588,218.5581 Q355.9474,218.7144 355.2443,218.7144 Q352.7443,218.7144 351.4162,217.0738 Q350.1037,215.4175 350.1037,212.2925 Q350.1037,209.1675 351.4162,207.5113 Q352.7443,205.855 355.2443,205.855 Q355.9474,205.855 356.588,206.0113 Q357.2443,206.1675 357.8068,206.4644 L357.8068,209.1831 Q357.1818,208.605 356.588,208.3394 Q355.9943,208.0581 355.3693,208.0581 Q354.0255,208.0581 353.338,209.1363 Q352.6505,210.1988 352.6505,212.2925 Q352.6505,214.3863 353.338,215.4644 Q354.0255,216.5269 355.3693,216.5269 Q355.9943,216.5269 356.588,216.2613 Q357.1818,215.98 357.8068,215.4019 L357.8068,218.1206 Z " fill="#000000"/><text fill="#000000" font-family="sans-serif" font-size="14" lengthAdjust="spacing" textLength="37.4951" x="375.338" y="217.3267">Artist</text><line style="stroke:#181818;stroke-width:0.5;" x1="285.11" x2="470.5612" y1="228.48" y2="228.48"/><line style="stroke:#181818;stroke-width:0.5;" x1="285.11" x2="470.5612" y1="236.48" y2="236.48"/><text fill="#000000" font-family="sans-serif" font-size="14" lengthAdjust="spacing" textLength="175.4512" x="290.11" y="253.4751">&#160; &#160; +void createCourses()</text><text fill="#000000" font-family="sans-serif" font-size="14" lengthAdjust="spacing" textLength="162.0049" x="290.11" y="269.772">&#160; &#160; +void saveArtwork()</text><text fill="#000000" font-family="sans-serif" font-size="14" lengthAdjust="spacing" textLength="155.2236" x="290.11" y="286.0689">&#160; &#160; +void createBand()</text><text fill="#000000" font-family="sans-serif" font-size="14" lengthAdjust="spacing" textLength="126.3486" x="290.11" y="302.3657">&#160; &#160; +void postJob()</text><text fill="#000000" font-family="sans-serif" font-size="14" lengthAdjust="spacing" textLength="157.0146" x="290.11" y="318.6626">&#160; &#160; +void applyForJob()</text><text fill="#000000" font-family="sans-serif" font-size="14" lengthAdjust="spacing" textLength="159.4688" x="290.11" y="334.9595">&#160; &#160; +void postArtwork()</text></g><!--class Profile--><g id="elem_Profile"><rect codeLine="26" fill="#F1F1F1" height="113.1875" id="Profile" rx="2.5" ry="2.5" style="stroke:#181818;stroke-width:0.5;" width="479.5508" x="507.06" y="212.78"/><ellipse cx="720.5429" cy="228.78" fill="#ADD1B2" rx="11" ry="11" style="stroke:#181818;stroke-width:1.0;"/><path d="M723.5117,234.4206 Q722.9335,234.7175 722.2929,234.8581 Q721.6523,235.0144 720.9492,235.0144 Q718.4492,235.0144 717.121,233.3738 Q715.8085,231.7175 715.8085,228.5925 Q715.8085,225.4675 717.121,223.8113 Q718.4492,222.155 720.9492,222.155 Q721.6523,222.155 722.2929,222.3113 Q722.9492,222.4675 723.5117,222.7644 L723.5117,225.4831 Q722.8867,224.905 722.2929,224.6394 Q721.6992,224.3581 721.0742,224.3581 Q719.7304,224.3581 719.0429,225.4363 Q718.3554,226.4988 718.3554,228.5925 Q718.3554,230.6863 719.0429,231.7644 Q719.7304,232.8269 721.0742,232.8269 Q721.6992,232.8269 722.2929,232.5613 Q722.8867,232.28 723.5117,231.7019 L723.5117,234.4206 Z " fill="#000000"/><text fill="#000000" font-family="sans-serif" font-size="14" lengthAdjust="spacing" textLength="44.085" x="741.0429" y="233.6267">Profile</text><line style="stroke:#181818;stroke-width:0.5;" x1="508.06" x2="985.6108" y1="244.78" y2="244.78"/><text fill="#000000" font-family="sans-serif" font-size="14" lengthAdjust="spacing" textLength="115.4658" x="513.06" y="261.7751">&#160; &#160; +String name</text><text fill="#000000" font-family="sans-serif" font-size="14" lengthAdjust="spacing" textLength="114.3721" x="513.06" y="278.072">&#160; &#160; +String email</text><text fill="#000000" font-family="sans-serif" font-size="14" lengthAdjust="spacing" textLength="467.5508" x="513.06" y="294.3689">&#160; &#160; +String type &#160;// Viewer, Artist, Institution, Band, ServiceProvider</text><line style="stroke:#181818;stroke-width:0.5;" x1="508.06" x2="985.6108" y1="301.6706" y2="301.6706"/><text fill="#000000" font-family="sans-serif" font-size="14" lengthAdjust="spacing" textLength="145.4961" x="513.06" y="318.6657">&#160; &#160; +void editProfile()</text></g><!--class Band--><g id="elem_Band"><rect codeLine="33" fill="#F1F1F1" height="113.1875" id="Band" rx="2.5" ry="2.5" style="stroke:#181818;stroke-width:0.5;" width="239.9648" x="257.85" y="410.41"/><ellipse cx="355.6107" cy="426.41" fill="#ADD1B2" rx="11" ry="11" style="stroke:#181818;stroke-width:1.0;"/><path d="M358.5795,432.0506 Q358.0014,432.3475 357.3607,432.4881 Q356.7201,432.6444 356.017,432.6444 Q353.517,432.6444 352.1889,431.0038 Q350.8764,429.3475 350.8764,426.2225 Q350.8764,423.0975 352.1889,421.4413 Q353.517,419.785 356.017,419.785 Q356.7201,419.785 357.3607,419.9413 Q358.017,420.0975 358.5795,420.3944 L358.5795,423.1131 Q357.9545,422.535 357.3607,422.2694 Q356.767,421.9881 356.142,421.9881 Q354.7982,421.9881 354.1107,423.0663 Q353.4232,424.1288 353.4232,426.2225 Q353.4232,428.3163 354.1107,429.3944 Q354.7982,430.4569 356.142,430.4569 Q356.767,430.4569 357.3607,430.1913 Q357.9545,429.91 358.5795,429.3319 L358.5795,432.0506 Z " fill="#000000"/><text fill="#000000" font-family="sans-serif" font-size="14" lengthAdjust="spacing" textLength="35.9434" x="376.1107" y="431.2567">Band</text><line style="stroke:#181818;stroke-width:0.5;" x1="258.85" x2="496.8148" y1="442.41" y2="442.41"/><text fill="#000000" font-family="sans-serif" font-size="14" lengthAdjust="spacing" textLength="152.291" x="263.85" y="459.4051">&#160; &#160; +String bandName</text><line style="stroke:#181818;stroke-width:0.5;" x1="258.85" x2="496.8148" y1="466.7069" y2="466.7069"/><text fill="#000000" font-family="sans-serif" font-size="14" lengthAdjust="spacing" textLength="225.3672" x="263.85" y="483.702">&#160; &#160; +void addMember(User user)</text><text fill="#000000" font-family="sans-serif" font-size="14" lengthAdjust="spacing" textLength="105.1709" x="263.85" y="499.9989">&#160; &#160; +void chat()</text><text fill="#000000" font-family="sans-serif" font-size="14" lengthAdjust="spacing" textLength="227.9648" x="263.85" y="516.2957">&#160; &#160; +void postForBandMembers()</text></g><!--class Institution--><g id="elem_Institution"><rect codeLine="40" fill="#F1F1F1" height="80.5938" id="Institution" rx="2.5" ry="2.5" style="stroke:#181818;stroke-width:0.5;" width="173.5947" x="1022.04" y="229.07"/><ellipse cx="1069.1601" cy="245.07" fill="#ADD1B2" rx="11" ry="11" style="stroke:#181818;stroke-width:1.0;"/><path d="M1072.1289,250.7106 Q1071.5507,251.0075 1070.9101,251.1481 Q1070.2695,251.3044 1069.5664,251.3044 Q1067.0664,251.3044 1065.7382,249.6638 Q1064.4257,248.0075 1064.4257,244.8825 Q1064.4257,241.7575 1065.7382,240.1013 Q1067.0664,238.445 1069.5664,238.445 Q1070.2695,238.445 1070.9101,238.6013 Q1071.5664,238.7575 1072.1289,239.0544 L1072.1289,241.7731 Q1071.5039,241.195 1070.9101,240.9294 Q1070.3164,240.6481 1069.6914,240.6481 Q1068.3476,240.6481 1067.6601,241.7263 Q1066.9726,242.7888 1066.9726,244.8825 Q1066.9726,246.9763 1067.6601,248.0544 Q1068.3476,249.1169 1069.6914,249.1169 Q1070.3164,249.1169 1070.9101,248.8513 Q1071.5039,248.57 1072.1289,247.9919 L1072.1289,250.7106 Z " fill="#000000"/><text fill="#000000" font-family="sans-serif" font-size="14" lengthAdjust="spacing" textLength="70.8545" x="1089.6601" y="249.9167">Institution</text><line style="stroke:#181818;stroke-width:0.5;" x1="1023.04" x2="1194.6347" y1="261.07" y2="261.07"/><line style="stroke:#181818;stroke-width:0.5;" x1="1023.04" x2="1194.6347" y1="269.07" y2="269.07"/><text fill="#000000" font-family="sans-serif" font-size="14" lengthAdjust="spacing" textLength="161.5947" x="1028.04" y="286.0651">&#160; &#160; +void postJobOffer()</text><text fill="#000000" font-family="sans-serif" font-size="14" lengthAdjust="spacing" textLength="144.874" x="1028.04" y="302.362">&#160; &#160; +void postEvent()</text></g><!--class ServiceRequest--><g id="elem_ServiceRequest"><rect codeLine="45" fill="#F1F1F1" height="113.1875" id="ServiceRequest" rx="2.5" ry="2.5" style="stroke:#181818;stroke-width:0.5;" width="203.4609" x="1231.1" y="212.78"/><ellipse cx="1274.1002" cy="228.78" fill="#ADD1B2" rx="11" ry="11" style="stroke:#181818;stroke-width:1.0;"/><path d="M1277.0689,234.4206 Q1276.4908,234.7175 1275.8502,234.8581 Q1275.2096,235.0144 1274.5064,235.0144 Q1272.0064,235.0144 1270.6783,233.3738 Q1269.3658,231.7175 1269.3658,228.5925 Q1269.3658,225.4675 1270.6783,223.8113 Q1272.0064,222.155 1274.5064,222.155 Q1275.2096,222.155 1275.8502,222.3113 Q1276.5064,222.4675 1277.0689,222.7644 L1277.0689,225.4831 Q1276.4439,224.905 1275.8502,224.6394 Q1275.2564,224.3581 1274.6314,224.3581 Q1273.2877,224.3581 1272.6002,225.4363 Q1271.9127,226.4988 1271.9127,228.5925 Q1271.9127,230.6863 1272.6002,231.7644 Q1273.2877,232.8269 1274.6314,232.8269 Q1275.2564,232.8269 1275.8502,232.5613 Q1276.4439,232.28 1277.0689,231.7019 L1277.0689,234.4206 Z " fill="#000000"/><text fill="#000000" font-family="sans-serif" font-size="14" lengthAdjust="spacing" textLength="109.2383" x="1294.3225" y="233.6267">ServiceRequest</text><line style="stroke:#181818;stroke-width:0.5;" x1="1232.1" x2="1433.5609" y1="244.78" y2="244.78"/><text fill="#000000" font-family="sans-serif" font-size="14" lengthAdjust="spacing" textLength="186.8877" x="1237.1" y="261.7751">&#160; &#160; +String instrumentType</text><text fill="#000000" font-family="sans-serif" font-size="14" lengthAdjust="spacing" textLength="191.4609" x="1237.1" y="278.072">&#160; &#160; +String issueDescription</text><line style="stroke:#181818;stroke-width:0.5;" x1="1232.1" x2="1433.5609" y1="285.3738" y2="285.3738"/><text fill="#000000" font-family="sans-serif" font-size="14" lengthAdjust="spacing" textLength="161.9912" x="1237.1" y="302.3689">&#160; &#160; +void createToken()</text><text fill="#000000" font-family="sans-serif" font-size="14" lengthAdjust="spacing" textLength="178.9922" x="1237.1" y="318.6657">&#160; &#160; +void acceptRequest()</text></g><!--class LearningPlatform--><g id="elem_LearningPlatform"><rect codeLine="52" fill="#F1F1F1" height="96.8906" id="LearningPlatform" rx="2.5" ry="2.5" style="stroke:#181818;stroke-width:0.5;" width="189.8779" x="1469.9" y="220.93"/><ellipse cx="1501.6937" cy="236.93" fill="#ADD1B2" rx="11" ry="11" style="stroke:#181818;stroke-width:1.0;"/><path d="M1504.6625,242.5706 Q1504.0843,242.8675 1503.4437,243.0081 Q1502.8031,243.1644 1502.1,243.1644 Q1499.6,243.1644 1498.2718,241.5238 Q1496.9593,239.8675 1496.9593,236.7425 Q1496.9593,233.6175 1498.2718,231.9613 Q1499.6,230.305 1502.1,230.305 Q1502.8031,230.305 1503.4437,230.4613 Q1504.1,230.6175 1504.6625,230.9144 L1504.6625,233.6331 Q1504.0375,233.055 1503.4437,232.7894 Q1502.85,232.5081 1502.225,232.5081 Q1500.8812,232.5081 1500.1937,233.5863 Q1499.5062,234.6488 1499.5062,236.7425 Q1499.5062,238.8363 1500.1937,239.9144 Q1500.8812,240.9769 1502.225,240.9769 Q1502.85,240.9769 1503.4437,240.7113 Q1504.0375,240.43 1504.6625,239.8519 L1504.6625,242.5706 Z " fill="#000000"/><text fill="#000000" font-family="sans-serif" font-size="14" lengthAdjust="spacing" textLength="120.5586" x="1519.4256" y="241.7767">LearningPlatform</text><line style="stroke:#181818;stroke-width:0.5;" x1="1470.9" x2="1658.7779" y1="252.93" y2="252.93"/><line style="stroke:#181818;stroke-width:0.5;" x1="1470.9" x2="1658.7779" y1="260.93" y2="260.93"/><text fill="#000000" font-family="sans-serif" font-size="14" lengthAdjust="spacing" textLength="177.8779" x="1475.9" y="277.9251">&#160; &#160; +void accessCourses()</text><text fill="#000000" font-family="sans-serif" font-size="14" lengthAdjust="spacing" textLength="147.7383" x="1475.9" y="294.222">&#160; &#160; +void saveNotes()</text><text fill="#000000" font-family="sans-serif" font-size="14" lengthAdjust="spacing" textLength="131.1406" x="1475.9" y="310.5189">&#160; &#160; +void practice()</text></g><!--class JobSection--><g id="elem_JobSection"><rect codeLine="58" fill="#F1F1F1" height="80.5938" id="JobSection" rx="2.5" ry="2.5" style="stroke:#181818;stroke-width:0.5;" width="162.2197" x="1694.73" y="229.07"/><ellipse cx="1735.2108" cy="245.07" fill="#ADD1B2" rx="11" ry="11" style="stroke:#181818;stroke-width:1.0;"/><path d="M1738.1796,250.7106 Q1737.6014,251.0075 1736.9608,251.1481 Q1736.3202,251.3044 1735.6171,251.3044 Q1733.1171,251.3044 1731.7889,249.6638 Q1730.4764,248.0075 1730.4764,244.8825 Q1730.4764,241.7575 1731.7889,240.1013 Q1733.1171,238.445 1735.6171,238.445 Q1736.3202,238.445 1736.9608,238.6013 Q1737.6171,238.7575 1738.1796,239.0544 L1738.1796,241.7731 Q1737.5546,241.195 1736.9608,240.9294 Q1736.3671,240.6481 1735.7421,240.6481 Q1734.3983,240.6481 1733.7108,241.7263 Q1733.0233,242.7888 1733.0233,244.8825 Q1733.0233,246.9763 1733.7108,248.0544 Q1734.3983,249.1169 1735.7421,249.1169 Q1736.3671,249.1169 1736.9608,248.8513 Q1737.5546,248.57 1738.1796,247.9919 L1738.1796,250.7106 Z " fill="#000000"/><text fill="#000000" font-family="sans-serif" font-size="14" lengthAdjust="spacing" textLength="73.5957" x="1754.8732" y="249.9167">JobSection</text><line style="stroke:#181818;stroke-width:0.5;" x1="1695.73" x2="1855.9497" y1="261.07" y2="261.07"/><line style="stroke:#181818;stroke-width:0.5;" x1="1695.73" x2="1855.9497" y1="269.07" y2="269.07"/><text fill="#000000" font-family="sans-serif" font-size="14" lengthAdjust="spacing" textLength="150.2197" x="1700.73" y="286.0651">&#160; &#160; +void searchJobs()</text><text fill="#000000" font-family="sans-serif" font-size="14" lengthAdjust="spacing" textLength="126.3486" x="1700.73" y="302.362">&#160; &#160; +void postJob()</text></g><!--class Post--><g id="elem_Post"><rect codeLine="63" fill="#F1F1F1" height="80.5938" id="Post" rx="2.5" ry="2.5" style="stroke:#181818;stroke-width:0.5;" width="153.0459" x="301.31" y="591.75"/><ellipse cx="358.6874" cy="607.75" fill="#ADD1B2" rx="11" ry="11" style="stroke:#181818;stroke-width:1.0;"/><path d="M361.6562,613.3906 Q361.0781,613.6875 360.4374,613.8281 Q359.7968,613.9844 359.0937,613.9844 Q356.5937,613.9844 355.2656,612.3438 Q353.9531,610.6875 353.9531,607.5625 Q353.9531,604.4375 355.2656,602.7813 Q356.5937,601.125 359.0937,601.125 Q359.7968,601.125 360.4374,601.2813 Q361.0937,601.4375 361.6562,601.7344 L361.6562,604.4531 Q361.0312,603.875 360.4374,603.6094 Q359.8437,603.3281 359.2187,603.3281 Q357.8749,603.3281 357.1874,604.4063 Q356.4999,605.4688 356.4999,607.5625 Q356.4999,609.6563 357.1874,610.7344 Q357.8749,611.7969 359.2187,611.7969 Q359.8437,611.7969 360.4374,611.5313 Q361.0312,611.25 361.6562,610.6719 L361.6562,613.3906 Z " fill="#000000"/><text fill="#000000" font-family="sans-serif" font-size="14" lengthAdjust="spacing" textLength="29.791" x="379.1874" y="612.5967">Post</text><line style="stroke:#181818;stroke-width:0.5;" x1="302.31" x2="453.3559" y1="623.75" y2="623.75"/><line style="stroke:#181818;stroke-width:0.5;" x1="302.31" x2="453.3559" y1="631.75" y2="631.75"/><text fill="#000000" font-family="sans-serif" font-size="14" lengthAdjust="spacing" textLength="130.6621" x="307.31" y="648.7451">&#160; &#160; +void lovedBy()</text><text fill="#000000" font-family="sans-serif" font-size="14" lengthAdjust="spacing" textLength="141.0459" x="307.31" y="665.042">&#160; &#160; +void comment()</text></g><!--reverse link User to Viewer--><g id="link_User_Viewer"><path codeLine="68" d="M1011.3772,76.4173 C826.1272,84.5273 390.01,111.92 266.83,196.48 C195.75,245.28 154.05,338.83 132.84,401.84 " fill="none" id="User-backto-Viewer" style="stroke:#181818;stroke-width:1.0;"/><polygon fill="none" points="1029.36,75.63,1011.1148,70.423,1011.6396,82.4115,1029.36,75.63" style="stroke:#181818;stroke-width:1.0;"/></g><!--reverse link User to Artist--><g id="link_User_Artist"><path codeLine="69" d="M1011.5147,80.8445 C891.0547,92.5745 674.51,121.86 489.83,196.48 C483.84,198.9 477.81,201.66 471.83,204.64 " fill="none" id="User-backto-Artist" style="stroke:#181818;stroke-width:1.0;"/><polygon fill="none" points="1029.43,79.1,1010.9332,74.8728,1012.0962,86.8163,1029.43,79.1" style="stroke:#181818;stroke-width:1.0;"/></g><!--reverse link User to Institution--><g id="link_User_Institution"><path codeLine="70" d="M1108.83,154.8 C1108.83,185.11 1108.83,202.35 1108.83,228.72 " fill="none" id="User-backto-Institution" style="stroke:#181818;stroke-width:1.0;"/><polygon fill="none" points="1108.83,136.8,1102.83,154.8,1114.83,154.8,1108.83,136.8" style="stroke:#181818;stroke-width:1.0;"/></g><!--link Artist to Band--><g id="link_Artist_Band"><path codeLine="71" d="M377.83,342.66 C377.83,364.98 377.83,383.19 377.83,404.21 " fill="none" id="Artist-to-Band" style="stroke:#181818;stroke-width:1.0;"/><polygon fill="#181818" points="377.83,410.21,381.83,401.21,377.83,405.21,373.83,401.21,377.83,410.21" style="stroke:#181818;stroke-width:1.0;"/></g><!--link User to Profile--><g id="link_User_Profile"><path codeLine="72" d="M1029.39,115.67 C976.84,144.07 912.6787,178.7477 855.7887,209.4877 " fill="none" id="User-to-Profile" style="stroke:#181818;stroke-width:1.0;"/><polygon fill="#181818" points="850.51,212.34,860.3295,211.5807,854.9089,209.9631,856.5265,204.5424,850.51,212.34" style="stroke:#181818;stroke-width:1.0;"/></g><!--link User to ServiceRequest--><g id="link_User_ServiceRequest"><path codeLine="73" d="M1182.18,136.8 C1210.12,161.2 1237.2117,184.8522 1264.2217,208.4522 " fill="none" id="User-to-ServiceRequest" style="stroke:#181818;stroke-width:1.0;"/><polygon fill="#181818" points="1268.74,212.4,1264.5945,203.4661,1264.9748,209.1101,1259.3307,209.4904,1268.74,212.4" style="stroke:#181818;stroke-width:1.0;"/></g><!--link User to LearningPlatform--><g id="link_User_LearningPlatform"><path codeLine="74" d="M1188.16,95.87 C1259.01,117.81 1364.75,153.72 1451.83,196.48 C1466.13,203.5 1475.7574,208.7697 1489.6774,217.3197 " fill="none" id="User-to-LearningPlatform" style="stroke:#181818;stroke-width:1.0;"/><polygon fill="#181818" points="1494.79,220.46,1489.2146,212.3412,1490.5295,217.8431,1485.0276,219.158,1494.79,220.46" style="stroke:#181818;stroke-width:1.0;"/></g><!--link User to JobSection--><g id="link_User_JobSection"><path codeLine="75" d="M1188.28,79.64 C1301.15,91.71 1512.44,122.81 1676.83,196.48 C1695.25,204.73 1708.8271,213.1639 1724.6671,225.0239 " fill="none" id="User-to-JobSection" style="stroke:#181818;stroke-width:1.0;"/><polygon fill="#181818" points="1729.47,228.62,1724.663,220.0239,1725.4676,225.6232,1719.8682,226.4278,1729.47,228.62" style="stroke:#181818;stroke-width:1.0;"/></g><!--link Viewer to Post--><g id="link_Viewer_Post"><path codeLine="76" d="M218.4,532.21 C250.6,552.17 280.0402,570.4191 308.7102,588.1891 " fill="none" id="Viewer-to-Post" style="stroke:#181818;stroke-width:1.0;"/><polygon fill="#181818" points="313.81,591.35,308.2675,583.2087,309.5601,588.7159,304.0529,590.0085,313.81,591.35" style="stroke:#181818;stroke-width:1.0;"/></g><!--link Artist to Post--><g id="link_Artist_Post"><path codeLine="77" d="M471.91,340.76 C489.37,358.72 505.14,379.48 514.83,402.26 C537.36,455.22 540.99,480.49 514.83,531.75 C501.68,557.52 483.3785,574.8562 459.6685,590.4962 " fill="none" id="Artist-to-Post" style="stroke:#181818;stroke-width:1.0;"/><polygon fill="#181818" points="454.66,593.8,464.3753,592.1833,458.8337,591.0468,459.9702,585.5053,454.66,593.8" style="stroke:#181818;stroke-width:1.0;"/></g><!--link Band to Post--><g id="link_Band_Post"><path codeLine="78" d="M377.83,523.66 C377.83,545.89 377.83,564.98 377.83,585.32 " fill="none" id="Band-to-Post" style="stroke:#181818;stroke-width:1.0;"/><polygon fill="#181818" points="377.83,591.32,381.83,582.32,377.83,586.32,373.83,582.32,377.83,591.32" style="stroke:#181818;stroke-width:1.0;"/></g><!--SRC=[TLJHJXin47o_h_0ZLHFn0rMbaXQ9gWL4W3uxlWsny7cDxJiKqVuBtyANTUtpvHpVHK92dhtrpCwE8nHtZZquiEoj-dXdzFTvxQtKJwmbKFC62jXGmolQUe1lBMwb0cRw_mFSeQoPmYUfppwL6BQUm7zL9IBxeuJNd3z-rX7upNfYUYukSBo3-KheMM5Zm4ilKRkY3DgYKbTw5LYXh1hBXPS2_aY_kqOVwmU9n2UTBoGA2zp32bixlUsqoBxhWkkw583E_yHDWN9ZrFuIxRGIlXyf3bA7VPJhd5abD5og0lDx0tG-FqzhMQJP5-nAE_Ar3SukMD2_O6km7Lb6b9simHwxNKkVjEJoGkD4suR0wqnVFtbT_uPc0_OinZF4iN1on_sC9sHM8EbxZxQOJL2iCdb_izqItVJA7nteeyYcmU_WfOKy5saUIKIsRQZfdkmiYywry1sSiD84AJFfkCTdADyD5mACJuovbb_0hQQBRnNtMxHDCLheS-vqIeUipxs5d8RiMOEOySuHlzXHsPqCz1XEdBmYXHtK5_lobM3J73oF-__oTxbCcSo0FfmPaEsuIgzskVmQOzT_5KufboDmlCyHBxqTAwCTLVhzYXVJV3bjFCV83wV_]--></g></svg>